<svg version="1.1" id="Layer_1" xmlns="http://www.w3.org/2000/svg" xmlns:xlink="http://www.w3.org/1999/xlink" x="0px" y="0px"
	 width="100%" viewBox="0 0 122 90" enable-background="new 0 0 122 90" xml:space="preserve">
<path fill="#FEFEFE" opacity="1.000000" stroke="none" 
	d="
M1.000000,57.000000 
	C1.000000,38.382656 1.000000,19.765308 1.000000,1.000000 
	C37.354103,1.000000 73.708389,1.000000 110.315308,1.293876 
	C93.974930,5.449327 82.727760,15.135507 77.919571,31.727695 
	C76.674294,36.024899 75.814400,40.432491 74.627739,44.748203 
	C70.245331,60.686386 62.532867,57.275028 53.811455,50.238224 
	C53.438591,49.937382 53.220959,49.444145 52.984482,48.640198 
	C55.842793,30.276953 65.837730,17.004072 81.526375,6.396251 
	C79.649635,6.189270 79.054176,6.087080 78.455582,6.062917 
	C63.116680,5.443735 47.123714,15.649027 40.688328,30.780289 
	C37.708561,37.786491 35.663563,45.195351 33.288494,52.452328 
	C30.408659,61.251606 26.355240,62.833115 18.788795,57.991318 
	C11.078070,53.057190 6.690353,52.812675 1.000000,57.000000 
z"/>
<path fill="#CCA331" opacity="1.000000" stroke="none" 
	d="
M1.000000,57.428463 
	C6.690353,52.812675 11.078070,53.057190 18.788795,57.991318 
	C26.355240,62.833115 30.408659,61.251606 33.288494,52.452328 
	C35.663563,45.195351 37.708561,37.786491 40.688328,30.780289 
	C47.123714,15.649027 63.116680,5.443735 78.455582,6.062917 
	C79.054176,6.087080 79.649635,6.189270 81.526375,6.396251 
	C65.837730,17.004072 55.842793,30.276953 52.587280,48.612095 
	C44.526768,46.452961 41.564758,48.144325 40.606335,55.811115 
	C45.792393,54.164944 49.920937,55.664188 53.080162,60.259998 
	C53.395832,60.727325 53.686424,60.896423 53.984795,61.033836 
	C53.992580,61.002151 53.929119,61.017345 53.805088,61.395523 
	C56.897842,68.018555 60.114628,74.263412 63.615250,81.059280 
	C59.824070,86.097153 53.385948,88.507614 47.000000,91.000000 
	C43.969406,91.000000 40.938812,91.000000 37.303761,90.680069 
	C29.109739,87.680237 23.193699,82.887589 18.552229,76.339966 
	C15.875035,72.563309 12.877057,69.014885 10.048626,65.344345 
	C7.629525,62.205002 4.753718,60.935745 1.000000,63.000000 
	C1.000000,61.285641 1.000000,59.571285 1.000000,57.428463 
z"/>
<path fill="#BDBFC1" opacity="1.000000" stroke="none" 
	d="
M53.055084,59.961765 
	C49.920937,55.664188 45.792393,54.164944 40.606335,55.811115 
	C41.564758,48.144325 44.526768,46.452961 52.533806,49.012436 
	C53.220959,49.444145 53.438591,49.937382 53.811455,50.238224 
	C62.532867,57.275028 70.245331,60.686386 74.627739,44.748203 
	C75.814400,40.432491 76.674294,36.024899 77.919571,31.727695 
	C82.727760,15.135507 93.974930,5.449327 110.783966,1.293876 
	C113.041664,1.000000 115.083336,1.000000 117.592560,1.351393 
	C116.928467,2.862253 115.883591,4.124410 114.651764,5.165337 
	C102.020889,15.838838 94.491234,29.321087 93.140282,45.825180 
	C91.631752,64.254173 103.171036,79.449867 123.000000,86.000000 
	C123.000000,87.066673 123.000000,88.133339 122.547638,89.592072 
	C111.629356,90.041908 101.449860,88.352951 93.026634,81.871201 
	C84.623779,75.405128 75.952400,72.835159 66.637779,76.495941 
	C62.198593,71.089203 58.063854,66.053276 53.929119,61.017345 
	C53.929119,61.017345 53.992580,61.002151 53.927521,60.782307 
	C53.593338,60.362232 53.324211,60.161999 53.055084,59.961765 
z"/>
<path fill="#FFFFFF" opacity="1.000000" stroke="none" 
	d="
M123.000000,85.531342 
	C103.171036,79.449867 91.631752,64.254173 93.140282,45.825180 
	C94.491234,29.321087 102.020889,15.838838 114.651764,5.165337 
	C115.883591,4.124410 116.928467,2.862253 118.030060,1.351393 
	C119.658524,1.000000 121.317047,1.000000 123.000000,1.000000 
	C123.000000,29.020889 123.000000,57.041786 123.000000,85.531342 
z"/>
<path fill="#FEFDFC" opacity="1.000000" stroke="none" 
	d="
M53.805088,61.395523 
	C58.063854,66.053276 62.198593,71.089203 66.637779,76.495941 
	C75.952400,72.835159 84.623779,75.405128 93.026634,81.871201 
	C101.449860,88.352951 111.629356,90.041908 122.547638,89.992065 
	C121.676193,90.333336 120.353096,90.954048 119.028473,90.957329 
	C95.331528,91.016068 71.634407,91.000000 47.468658,91.000000 
	C53.385948,88.507614 59.824070,86.097153 63.615250,81.059280 
	C60.114628,74.263412 56.897842,68.018555 53.805088,61.395523 
z"/>
<path fill="#FFFEFD" opacity="1.000000" stroke="none" 
	d="
M1.000000,63.468658 
	C4.753718,60.935745 7.629525,62.205002 10.048626,65.344345 
	C12.877057,69.014885 15.875035,72.563309 18.552229,76.339966 
	C23.193699,82.887589 29.109739,87.680237 36.849651,90.680069 
	C25.082644,91.000000 13.165288,91.000000 1.000000,91.000000 
	C1.000000,81.980621 1.000000,72.958969 1.000000,63.468658 
z"/>
<path fill="#FEFDFC" opacity="1.000000" stroke="none" 
	d="
M53.080162,60.259998 
	C53.324211,60.161999 53.593338,60.362232 53.919739,60.813992 
	C53.686424,60.896423 53.395832,60.727325 53.080162,60.259998 
z"/>
</svg>